<?xml version="1.0" encoding="utf-8"?>
<!-- Generator: Adobe Illustrator 19.1.1, SVG Export Plug-In . SVG Version: 6.00 Build 0)  -->
<svg version="1.1" id="Слой_1" xmlns="http://www.w3.org/2000/svg" xmlns:xlink="http://www.w3.org/1999/xlink" x="0px" y="0px"
	 viewBox="0 0 64 64" style="enable-background:new 0 0 64 64;" xml:space="preserve">
<g id="chicken">
	<path style="fill:#C6AC71;" d="M47.5,31c0.1-0.1,0.1-0.3,0.1-0.4c0-0.6-0.4-1-1-1c-0.6,0-1,0.5-1,1c0,0.1,0,0.1,0,0.2l-4.8,1.9
		l1.4,2.8l4.5-2.7c0.2,0.1,0.4,0.2,0.6,0.2c0.6,0,1-0.5,1-1C48.3,31.5,47.9,31.1,47.5,31z M46.4,31.7l-0.1-0.1
		C46.4,31.6,46.4,31.6,46.4,31.7C46.4,31.6,46.4,31.7,46.4,31.7z"/>
	<path style="fill:#9E1B1B;" d="M43.7,34.4c0-0.5-0.3-0.8-0.7-1c0.1-0.1,0.1-0.3,0.1-0.5c0-0.6-0.4-1-1-1c-0.2,0-0.3,0.1-0.5,0.1
		L33,34l0,0c-2.2,0.3-4,2.2-4,4.6c0,2.6,2,4.6,4.5,4.6c0.9,0,1.7-0.3,2.4-0.7l0,0l0,0c0.5-0.3,0.9-0.8,1.3-1.3l6-6
		C43.5,35.1,43.7,34.8,43.7,34.4z"/>
	<path style="fill:#B21F1F;" d="M32,32.5c-8.3,0-15,6.9-15,15.4h30C47,39.4,40.3,32.5,32,32.5z"/>
	<path style="fill:#9E1B1B;" d="M31.9,32.5C23.7,32.6,17,39.4,17,47.9h15L31.9,32.5z"/>
	<rect x="13" y="47.9" style="fill:#D8BF82;" width="38" height="2.1"/>
	<rect x="17" y="49.9" style="fill:#C6AC71;" width="30" height="2.1"/>
	<g>
		<path style="fill:#2F4422;" d="M20.1,45.3c-1.6,0-2.9,1.1-3.3,2.6h6.7C23,46.4,21.7,45.3,20.1,45.3z"/>
		<path style="fill:#2F4422;" d="M28.5,45.3c-1.6,0-2.9,1.1-3.3,2.6h6.7C31.4,46.4,30.1,45.3,28.5,45.3z"/>
		<path style="fill:#39512A;" d="M35.6,45.3c-1.6,0-2.9,1.1-3.3,2.6h6.7C38.5,46.4,37.1,45.3,35.6,45.3z"/>
		<path style="fill:#39512A;" d="M43.9,45.3c-1.6,0-2.9,1.1-3.3,2.6h6.7C46.8,46.4,45.5,45.3,43.9,45.3z"/>
	</g>
	<path style="fill:#39512A;" d="M14,44.4c0,0-0.5,3.1,3.4,3.4C17.4,47.8,17.7,44,14,44.4z"/>
	<path style="fill:#39512A;" d="M21.8,44.4c0,0-0.5,3.1,3.4,3.4C25.1,47.9,25.5,44.1,21.8,44.4z"/>
	<path style="fill:#455F34;" d="M32,42.9c0,0-2.6,1.8,0,4.9C32,47.8,34.8,45.4,32,42.9z"/>
	<path style="fill:#455F34;" d="M42.2,44.3c0,0-3.1-0.5-3.4,3.4C38.9,47.7,42.5,48,42.2,44.3z"/>
	<path style="fill:#455F34;" d="M49.1,44.3c0,0-3.1-0.5-3.4,3.4C45.7,47.7,49.4,48,49.1,44.3z"/>
	<path style="fill:#D8BF82;" d="M50.1,32.1c0.1-0.1,0.1-0.3,0.1-0.4c0-0.6-0.4-1-1-1c-0.6,0-1,0.5-1,1c0,0.1,0,0.1,0,0.2l-4.8,1.9
		l1.4,2.8l4.5-2.7c0.2,0.1,0.4,0.2,0.6,0.2c0.6,0,1-0.5,1-1C51,32.6,50.6,32.2,50.1,32.1z M49.1,32.8L49,32.7
		C49,32.7,49.1,32.7,49.1,32.8C49.1,32.8,49.1,32.8,49.1,32.8z"/>
	<path style="fill:#CC3737;" d="M46.4,35.5c0-0.5-0.3-0.8-0.7-1c0.1-0.1,0.1-0.3,0.1-0.5c0-0.6-0.4-1-1-1c-0.2,0-0.3,0.1-0.5,0.1
		l-8.7,2l0,0c-2.2,0.3-4,2.2-4,4.6c0,2.6,2,4.6,4.5,4.6c0.9,0,1.7-0.3,2.4-0.7l0,0l0,0c0.5-0.3,0.9-0.8,1.3-1.3l6-6
		C46.2,36.2,46.4,35.9,46.4,35.5z"/>
	<path style="fill:#D8BF82;" d="M32.6,29.9c0,0-4.7-4-2.1-7.9c1.2-1.8,2.8-2.1,0.4-5c0,0-2.5-2.1,0-5c0,0-1.6,2.6,1.4,4.6
		c1.9,1.2,2,3.8,0,5.9C32.2,22.4,29.3,25.2,32.6,29.9z"/>
	<path style="fill:#D8BF82;" d="M39.8,22c0,0-2.7-2.2-1.2-4.4c0.7-1,1.6-1.2,0.2-2.8c0,0-1.4-1.2,0-2.8c0,0-0.9,1.5,0.8,2.6
		c1.1,0.7,1.1,2.1,0,3.3C39.6,17.9,38,19.4,39.8,22z"/>
	<path style="fill:#C6AC71;" d="M25.1,22c0,0-2.7-2.2-1.2-4.4c0.7-1,1.6-1.2,0.2-2.8c0,0-1.4-1.2,0-2.8c0,0-0.9,1.5,0.8,2.6
		c1.1,0.7,1.1,2.1,0,3.3C24.9,17.9,23.3,19.4,25.1,22z"/>
	<polygon style="fill:#C6AC71;" points="32,47.9 17,47.9 13,47.9 13,49.9 17,49.9 32,49.9 	"/>
	<polygon style="fill:#BA9C61;" points="17,49.9 17,52 32,52 32,49.9 	"/>
	<g>
		<path style="fill:#39512A;" d="M32,47.8C32,47.8,32,47.8,32,47.8l0-4.9C31.8,43.1,29.6,44.9,32,47.8z"/>
	</g>
	<g>
		<path style="fill:none;" d="M31.4,17.8l0.1,2.9C32.2,20,32.4,19.3,31.4,17.8z"/>
		<path style="fill:none;" d="M31.7,28.5l-0.1-5.1C31.1,24.3,30.6,26.1,31.7,28.5z"/>
		<path style="fill:#C6AC71;" d="M30.9,12c-2.5,2.9,0,5,0,5c0.2,0.3,0.4,0.5,0.6,0.8l-0.1-1.9C29.6,14.1,30.9,12,30.9,12z"/>
		<path style="fill:#C6AC71;" d="M31.6,23.4l-0.1-2.6c-0.3,0.4-0.7,0.8-1.1,1.3c-1.9,2.8,0.1,5.7,1.3,7l0-0.6
			C30.6,26.1,31.1,24.3,31.6,23.4z"/>
	</g>
	<line style="fill:none;stroke:#FFE9CA;stroke-linecap:round;stroke-miterlimit:10;" x1="46" y1="48.9" x2="48" y2="48.9"/>
	<line style="fill:none;stroke:#FFE9CA;stroke-linecap:round;stroke-miterlimit:10;" x1="50" y1="48.9" x2="50" y2="48.9"/>
	<line style="fill:none;stroke:#FFE9CA;stroke-linecap:round;stroke-miterlimit:10;" x1="49.4" y1="31.6" x2="49.4" y2="31.6"/>
	<line style="fill:none;stroke:#FFCACA;stroke-linecap:round;stroke-miterlimit:10;" x1="41.2" y1="35.1" x2="43.2" y2="34.5"/>
	<g>
		<path style="fill:#B21F1F;" d="M37.7,36c0,0-0.1,1.3,0.8,1.6C38.4,37.6,36.6,37.6,37.7,36z"/>
		<path style="fill:#B21F1F;" d="M42,36.3c0,0-0.1,1.3,0.8,1.6C42.8,37.9,40.9,37.9,42,36.3z"/>
		<path style="fill:#B21F1F;" d="M40.2,37.6c0,0-0.1,1.3,0.8,1.6C41,39.2,39.1,39.2,40.2,37.6z"/>
		<path style="fill:#B21F1F;" d="M37.8,40.2c0,0-0.1,1.3,0.8,1.6C38.6,41.8,36.7,41.8,37.8,40.2z"/>
		<path style="fill:#B21F1F;" d="M34.8,37.6c0,0-0.1,1.3,0.8,1.6C35.6,39.2,33.7,39.2,34.8,37.6z"/>
		<path style="fill:#B21F1F;" d="M34.4,40.6c0,0-0.1,1.3,0.8,1.6C35.2,42.2,33.3,42.2,34.4,40.6z"/>
		<path style="fill:#9E1B1B;" d="M38,44.6c0,0-0.1,1.3,0.8,1.6C38.8,46.2,36.9,46.2,38,44.6z"/>
		<path style="fill:#9E1B1B;" d="M34.8,33.2c0,0-0.1,1.3,0.8,1.6C35.6,34.8,33.7,34.8,34.8,33.2z"/>
		<path style="fill:#9E1B1B;" d="M32.6,34c0,0-0.1,1.3,0.8,1.6C33.4,35.5,31.5,35.5,32.6,34z"/>
		<path style="fill:#9E1B1B;" d="M44.9,42.5c0,0-0.1,1.3,0.8,1.6C45.7,44.1,43.8,44.1,44.9,42.5z"/>
		<path style="fill:#9E1B1B;" d="M43.4,39.9c0,0-0.1,1.3,0.8,1.6C44.1,41.5,42.3,41.5,43.4,39.9z"/>
		<path style="fill:#9E1B1B;" d="M43,42.9c0,0-0.1,1.3,0.8,1.6C43.8,44.5,41.9,44.5,43,42.9z"/>
		<path style="fill:#911616;" d="M24.2,37.5c0,0-0.1,1.3,0.8,1.6C25,39.1,23.1,39.1,24.2,37.5z"/>
		<path style="fill:#911616;" d="M28.6,37.9c0,0-0.1,1.3,0.8,1.6C29.3,39.4,27.5,39.4,28.6,37.9z"/>
		<path style="fill:#911616;" d="M26.8,39.1c0,0-0.1,1.3,0.8,1.6C27.6,40.7,25.7,40.7,26.8,39.1z"/>
		<path style="fill:#911616;" d="M24.4,41.7c0,0-0.1,1.3,0.8,1.6C25.1,43.3,23.3,43.3,24.4,41.7z"/>
		<path style="fill:#911616;" d="M21.4,39.1c0,0-0.1,1.3,0.8,1.6C22.1,40.7,20.3,40.7,21.4,39.1z"/>
		<path style="fill:#911616;" d="M21,42.1c0,0-0.1,1.3,0.8,1.6C21.8,43.7,19.9,43.7,21,42.1z"/>
		<path style="fill:#911616;" d="M26.2,34.8c0,0-0.1,1.3,0.8,1.6C27,36.3,25.1,36.3,26.2,34.8z"/>
		<path style="fill:#911616;" d="M30,34.5c0,0-0.1,1.3,0.8,1.6C30.8,36.1,28.9,36.1,30,34.5z"/>
		<path style="fill:#911616;" d="M27.3,42.9c0,0-0.1,1.3,0.8,1.6C28.1,44.5,26.2,44.5,27.3,42.9z"/>
		<path style="fill:#911616;" d="M30,41.4c0,0-0.1,1.3,0.8,1.6C30.8,42.9,28.9,42.9,30,41.4z"/>
	</g>
</g>
</svg>
